<?xml version="1.0" encoding="UTF-8"?>
<svg version="1.1" viewBox="0 0 1000 1000" xml:space="preserve" xmlns="http://www.w3.org/2000/svg"><rect x="520" y="520" width="480" height="480" fill="#8e6804"/><rect y="520" width="480" height="480" fill="#035175"/><rect x="520" width="480" height="480" fill="#4e7303"/><rect width="480" height="480" fill="#7b2a13"/><path d="m520 520v16.607c0.94539-0.20464 2.53-0.7793 3.0996-0.7793 17.864 1e-5 31.899 19.322 24.061 32.811-2.4529 3.986-12.901 10.281-27.16 17.039v414.32h311.65c-0.21291-3.4215-0.36339-6.2284-0.67382-11.195-1.0937-15.13-2.3711-39.738-2.918-54.686-2.0051-51.587-11.301-177.55-18.41-247-7.5657-74.777-14.56-125.94-23.182-167.12h-266.47z" fill="#ffba08"/><path d="m89.838 520c10.1 12.357 24.051 23.331 41.895 32.598 28.619 14.765 62.889 27.707 82.029 31.17 35.181 6.38 85.855 8.3853 118.48 4.9219 39.895-4.1589 104.12-20.544 147.75-36.852v-31.838h-390.16zm390.16 82.049c-16.86 5.8203-21.042 7.8493-20.154 10.156 4.3748 10.937 12.214 60.518 16.225 101.35 1.6501 16.501 2.9508 36.135 3.9297 57.691v-169.2zm0 380.47c-0.22997 5.8231-0.41144 11.778-0.67969 17.48h0.67969v-17.48z" fill="#05a6f0"/><path d="m520 220.82v259.18h256.9c-7.3426-25.669-16.034-47.98-27.219-70.861-21.874-44.842-45.208-76.559-83.123-112.83-25.52-24.426-36.456-32.628-59.424-44.477-27.964-14.341-56.289-24.346-87.133-31.012z" fill="#81bc06"/><path d="m444.57 212.15c-4.0351-0.05292-8.0803-0.05178-12.115 0.0039-21.464 0.29622-42.608 2.1193-60.107 5.4004-109.92 20.78-217.1 80.022-269.05 148.38-11.666 15.312-24.425 41.561-28.982 59.607-3.7029 14.49-4.8347 38.896-2.791 54.455h408.48v-265.89c-11.315-1.1496-23.322-1.7983-35.428-1.957zm-260.9 88.877c17.719-0.02208 30.831 19.847 20.064 37.381-6.7445 11.302-19.87 14.402-32.812 7.8398-17.864-9.1142-16.405-34.817 2.5527-43.02 3.4748-1.5095 6.9141-2.1971 10.195-2.2012zm126.68 16.219c13.535 0.42723 26.455 11.776 26.455 26.814 0 20.78-22.421 34.451-39.738 24.061-17.499-10.755-17.499-36.64 0-47.395 4.1925-2.552 8.7716-3.6229 13.283-3.4805z" fill="#f35325"/></svg>
